HIERARCHY
ROOT Hips
{
	OFFSET 0.00000 0.00000 0.00000
	CHANNELS 6 Xposition Yposition Zposition Zrotation Yrotation Xrotation 
	JOINT LHipJoint
	{
		OFFSET 0 0 0
		CHANNELS 3 Zrotation Yrotation Xrotation
		JOINT LeftUpLeg
		{
			OFFSET 1.34019 -1.87553 0.90315
			CHANNELS 3 Zrotation Yrotation Xrotation
			JOINT LeftLeg
			{
				OFFSET 2.55316 -7.01474 0.00000
				CHANNELS 3 Zrotation Yrotation Xrotation
				JOINT LeftFoot
				{
					OFFSET 2.64657 -7.27139 0.00000
					CHANNELS 3 Zrotation Yrotation Xrotation
					JOINT LeftToeBase
					{
						OFFSET 0.24207 -0.66507 2.14489
						CHANNELS 3 Zrotation Yrotation Xrotation
						End Site
						{
							OFFSET 0.00000 -0.00000 1.12451
						}
					}
				}
			}
		}
	}
	JOINT RHipJoint
	{
		OFFSET 0 0 0
		CHANNELS 3 Zrotation Yrotation Xrotation
		JOINT RightUpLeg
		{
			OFFSET -1.28320 -1.87553 0.90315
			CHANNELS 3 Zrotation Yrotation Xrotation
			JOINT RightLeg
			{
				OFFSET -2.60484 -7.15674 0.00000
				CHANNELS 3 Zrotation Yrotation Xrotation
				JOINT RightFoot
				{
					OFFSET -2.60296 -7.15159 0.00000
					CHANNELS 3 Zrotation Yrotation Xrotation
					JOINT RightToeBase
					{
						OFFSET -0.31082 -0.85398 2.28998
						CHANNELS 3 Zrotation Yrotation Xrotation
						End Site
						{
							OFFSET -0.00000 -0.00000 1.21611
						}
					}
				}
			}
		}
	}
	JOINT LowerBack
	{
		OFFSET 0 0 0
		CHANNELS 3 Zrotation Yrotation Xrotation
		JOINT Spine
		{
			OFFSET -0.00160 2.05581 -0.15156
			CHANNELS 3 Zrotation Yrotation Xrotation
			JOINT Spine1
			{
				OFFSET 0.04594 2.06326 -0.01617
				CHANNELS 3 Zrotation Yrotation Xrotation
				JOINT Neck
				{
					OFFSET 0 0 0
					CHANNELS 3 Zrotation Yrotation Xrotation
					JOINT Neck1
					{
						OFFSET 0.03753 1.73883 0.26751
						CHANNELS 3 Zrotation Yrotation Xrotation
						JOINT Head
						{
							OFFSET -0.09795 1.76129 -0.31794
							CHANNELS 3 Zrotation Yrotation Xrotation
							End Site
							{
								OFFSET -0.03611 1.79987 -0.13846
							}
						}
					}
				}
				JOINT LeftShoulder
				{
					OFFSET 0 0 0
					CHANNELS 3 Zrotation Yrotation Xrotation
					JOINT LeftArm
					{
						OFFSET 3.30667 1.29205 -0.22445
						CHANNELS 3 Zrotation Yrotation Xrotation
						JOINT LeftForeArm
						{
							OFFSET 4.92785 -0.00000 -0.00000
							CHANNELS 3 Zrotation Yrotation Xrotation
							JOINT LeftHand
							{
								OFFSET 3.44052 -0.00000 0.00000
								CHANNELS 3 Zrotation Yrotation Xrotation
								JOINT LeftFingerBase
								{
									OFFSET 0 0 0
									CHANNELS 3 Zrotation Yrotation Xrotation
									JOINT LeftHandIndex1
									{
										OFFSET 0.65433 -0.00000 0.00000
										CHANNELS 3 Zrotation Yrotation Xrotation
										End Site
										{
											OFFSET 0.52753 -0.00000 0.00000
										}
									}
								}
								JOINT LThumb
								{
									OFFSET 0 0 0
									CHANNELS 3 Zrotation Yrotation Xrotation
									End Site
									{
										OFFSET 0.53559 -0.00000 0.53559
									}
								}
							}
						}
					}
				}
				JOINT RightShoulder
				{
					OFFSET 0 0 0
					CHANNELS 3 Zrotation Yrotation Xrotation
					JOINT RightArm
					{
						OFFSET -3.20032 1.49783 -0.27688
						CHANNELS 3 Zrotation Yrotation Xrotation
						JOINT RightForeArm
						{
							OFFSET -5.09181 -0.00000 -0.00000
							CHANNELS 3 Zrotation Yrotation Xrotation
							JOINT RightHand
							{
								OFFSET -3.49865 -0.00000 -0.00000
								CHANNELS 3 Zrotation Yrotation Xrotation
								JOINT RightFingerBase
								{
									OFFSET 0 0 0
									CHANNELS 3 Zrotation Yrotation Xrotation
									JOINT RightHandIndex1
									{
										OFFSET -0.66641 -0.00000 0.00000
										CHANNELS 3 Zrotation Yrotation Xrotation
										End Site
										{
											OFFSET -0.53728 -0.00000 0.00000
										}
									}
								}
								JOINT RThumb
								{
									OFFSET 0 0 0
									CHANNELS 3 Zrotation Yrotation Xrotation
									End Site
									{
										OFFSET -0.54548 -0.00000 0.54548
									}
								}
							}
						}
					}
				}
			}
		}
	}
}
MOTION
Frames: 6
Frame Time: .0083333
0.9219 17.7223 -16.1413 8.6995 2.2765 6.7333 0.0000 0.0000 0.0000 -30.5388 -7.8679 -14.5067 2.5151 9.8653 28.5415 0.4678 9.2102 -19.3959 0.2470 -3.1981 -8.8308 0.0000 0.0000 0.0000 7.1620 -1.2322 -31.6325 -13.6279 -18.9973 71.0649 0.1154 -15.0758 -20.1437 -0.0326 1.1653 -3.2038 -9.2585 0.9527 8.4378 -0.9784 0.2523 -0.9337 4.1415 0.4032 -5.7851 7.1915 0.9662 -25.1368 -7.4553 0.6475 22.0228 -3.8592 -0.0781 11.3647 0.0000 -0.0000 0.0000 -86.7093 8.8850 20.3713 10.3937 -17.3531 -1.5904 -0.0000 0.0000 -5.3221 14.3424 2.1681 0.5542 -7.1250 0.0000 -0.0000 -9.8374 32.1142 3.1429 0.0000 -0.0000 0.0000 85.4637 -9.9642 18.7320 -13.6601 22.2467 -2.6981 0.0000 -0.0000 -5.4832 -17.4621 -3.2936 1.0354 7.1250 -0.0000 -0.0000 7.4575 -33.3648 2.1425
0.9392 17.7018 -15.9163 9.1014 2.1751 6.5193 0.0000 0.0000 0.0000 -31.1985 -7.3783 -13.2929 2.4504 9.7471 28.1616 0.4886 9.4670 -19.8668 0.2377 -3.1377 -8.6622 0.0000 0.0000 0.0000 6.6406 -0.6514 -33.2805 -13.3646 -18.9099 70.2543 0.0326 -15.0857 -21.0721 -0.0416 1.3163 -3.6195 -9.6683 0.8533 8.4945 -1.0455 0.0671 -0.9305 4.3248 0.3243 -5.7913 7.2547 1.0472 -24.9465 -7.4760 0.7589 22.0984 -3.8592 -0.0217 11.3680 -0.0000 0.0000 0.0000 -86.4620 8.0103 21.8218 10.8362 -18.0367 -1.7249 -0.0000 0.0000 -6.3297 14.5013 2.1107 0.5458 -7.1250 0.0000 -0.0000 -9.7042 32.0601 3.1121 -0.0000 0.0000 0.0000 85.3737 -10.6037 18.3760 -13.4322 21.9172 -2.6124 0.0000 -0.0000 -5.3870 -17.1619 -3.5400 1.0924 7.1250 -0.0000 -0.0000 7.7271 -33.6101 2.1749
0.9553 17.6827 -15.6889 9.4750 2.0631 6.3255 0.0000 0.0000 0.0000 -31.8097 -6.8191 -12.0707 2.3688 9.5954 27.6762 0.5063 9.6762 -20.2558 0.2267 -3.0648 -8.4592 0.0000 0.0000 0.0000 6.1630 -0.0600 -34.8438 -13.0094 -18.7855 69.1546 -0.0182 -15.2534 -21.8396 -0.0495 1.4363 -3.9500 -10.0683 0.7600 8.5274 -1.1011 -0.1061 -0.9306 4.5130 0.2508 -5.7871 7.3155 1.1265 -24.8254 -7.5066 0.8679 22.1959 -3.8647 0.0313 11.3924 0.0000 0.0000 0.0000 -86.2206 7.0980 23.0532 11.2822 -18.7195 -1.8655 -0.0000 0.0000 -7.3473 14.6705 2.0208 0.5289 -7.1250 0.0000 -0.0000 -9.5590 31.9730 3.0847 0.0000 0.0000 0.0000 85.2777 -11.2177 17.9323 -13.1726 21.5396 -2.5163 0.0000 -0.0000 -5.1101 -16.8388 -3.7018 1.1194 7.1250 -0.0000 -0.0000 8.0074 -33.7659 2.2246
0.9702 17.6666 -15.4587 9.8304 1.9608 6.1582 0.0000 0.0000 0.0000 -32.3824 -6.2062 -10.8156 2.2655 9.3985 27.0500 0.5194 9.8350 -20.5444 0.2158 -2.9903 -8.2517 0.0000 0.0000 0.0000 5.7155 0.5110 -36.3072 -12.5602 -18.6175 67.7537 -0.0425 -15.5232 -22.4551 -0.0547 1.5091 -4.1508 -10.4607 0.6670 8.5279 -1.1521 -0.2748 -0.9407 4.7007 0.1793 -5.7740 7.3855 1.1990 -24.7407 -7.5572 0.9668 22.2882 -3.8814 0.0774 11.4210 0.0000 -0.0000 0.0000 -85.9769 6.1620 24.0753 11.7270 -19.3940 -2.0107 -0.0000 0.0000 -8.3402 14.8446 1.9155 0.5076 -7.1250 0.0000 -0.0000 -9.4087 31.8701 3.0586 0.0000 -0.0000 0.0000 85.1842 -11.8426 17.4131 -12.8971 21.1362 -2.4160 0.0000 -0.0000 -4.6630 -16.5231 -3.7456 1.1102 7.1250 -0.0000 -0.0000 8.2688 -33.7995 2.2917
0.9843 17.6551 -15.2262 10.1362 1.8703 6.0171 0.0000 0.0000 0.0000 -32.8812 -5.5609 -9.5097 2.1382 9.1482 26.2600 0.5254 9.9551 -20.7231 0.2058 -2.9207 -8.0580 0.0000 0.0000 0.0000 5.3347 1.0616 -37.6548 -12.0183 -18.3984 66.0468 -0.0354 -15.8739 -22.8681 -0.0575 1.5471 -4.2555 -10.8170 0.5715 8.4989 -1.1849 -0.4385 -0.9563 4.8866 0.1091 -5.7488 7.4657 1.2910 -24.7275 -7.6156 1.0891 22.4398 -3.9020 0.1333 11.4880 -0.0000 0.0000 0.0000 -85.7443 5.2113 24.9012 12.1844 -20.0806 -2.1652 -0.0000 0.0000 -9.3178 14.9942 1.8293 0.4899 -7.1250 0.0000 -0.0000 -9.2802 31.7856 3.0350 -0.0000 0.0000 0.0000 85.0831 -12.4558 16.8259 -12.6080 20.7102 -2.3128 0.0000 -0.0000 -4.0827 -16.2311 -3.7130 1.0800 7.1250 -0.0000 -0.0000 8.5021 -33.7550 2.3668
0.9968 17.6473 -14.9918 10.3927 1.8075 5.9135 0.0000 0.0000 0.0000 -33.2996 -4.9017 -8.1569 1.9881 8.8413 25.3002 0.5247 10.0294 -20.7889 0.1964 -2.8537 -7.8718 0.0000 0.0000 0.0000 5.0188 1.5842 -38.8894 -11.3920 -18.1216 64.0480 0.0023 -16.2646 -23.0463 -0.0577 1.5499 -4.2633 -11.1310 0.4692 8.4380 -1.2058 -0.6025 -0.9867 5.0608 0.0378 -5.7195 7.5752 1.3776 -24.7243 -7.7072 1.2004 22.5670 -3.9412 0.1820 11.5473 -0.0000 -0.0000 0.0000 -85.5091 4.2469 25.5509 12.6379 -20.7543 -2.3234 -0.0000 0.0000 -10.2606 15.1338 1.7321 0.4684 -7.1250 0.0000 -0.0000 -9.1587 31.6897 3.0157 -0.0000 -0.0000 0.0000 84.9940 -13.0565 16.1241 -12.2940 20.2441 -2.2030 0.0000 -0.0000 -3.3551 -15.9698 -3.6061 1.0312 7.1250 -0.0000 -0.0000 8.7012 -33.6355 2.4488
